<svg xmlns="http://www.w3.org/2000/svg" xmlns:xlink="http://www.w3.org/1999/xlink" id="body_1" preserveAspectRatio="xMinYMin meet" viewBox="0 0 793 1121"><defs><clipPath id="1"><path d="M0 841L0 -0.9000244L0 -0.9000244L595.3 -0.9000244L595.3 -0.9000244L595.3 841L595.3 841L0 841z" /></clipPath><clipPath id="2"><path d="M0 -0.9000244L595.3 -0.9000244L595.3 -0.9000244L595.3 841L595.3 841L0 841z" /></clipPath><clipPath id="3"><path d="M27.5 130.65L567.95 130.65L567.95 130.65L567.95 211.35L567.95 211.35L27.5 211.35z" /></clipPath><clipPath id="4"><path d="M0 -0.9000244L595.3 -0.9000244L595.3 -0.9000244L595.3 841L595.3 841L0 841z" /></clipPath><clipPath id="5"><path d="M28.45 233L568.45 233L568.45 233L568.45 249.55L568.45 249.55L28.45 249.55z" /></clipPath><clipPath id="6"><path d="M0 -0.9000244L595.3 -0.9000244L595.3 -0.9000244L595.3 841L595.3 841L0 841z" /></clipPath><clipPath id="7"><path d="M27.5 276.65L567.95 276.65L567.95 276.65L567.95 401.25L567.95 401.25L27.5 401.25z" /></clipPath><clipPath id="8"><path d="M0 -0.9000244L595.3 -0.9000244L595.3 -0.9000244L595.3 841L595.3 841L0 841z" /></clipPath><clipPath id="9"><path d="M0 -0.9000244L595.3 -0.9000244L595.3 -0.9000244L595.3 841L595.3 841L0 841z" /></clipPath><clipPath id="10"><path d="M34.55 26.09998L108.9 26.09998L108.9 26.09998L108.9 43.09998L108.9 43.09998L34.55 43.09998z" /></clipPath><clipPath id="11"><path d="M0 -0.9000244L595.3 -0.9000244L595.3 -0.9000244L595.3 841L595.3 841L0 841z" /></clipPath><clipPath id="12"><path d="M0 -0.9000244L595.3 -0.9000244L595.3 -0.9000244L595.3 841L595.3 841L0 841z" /></clipPath><clipPath id="13"><path d="M27.5 43.75L567.95 43.75L567.95 43.75L567.95 107.6L567.95 107.6L27.5 107.6z" /></clipPath><clipPath id="14"><path d="M0 -0.9000244L595.3 -0.9000244L595.3 -0.9000244L595.3 841L595.3 841L0 841z" /></clipPath><clipPath id="15"><path d="M0 -0.9000244L595.3 -0.9000244L595.3 -0.9000244L595.3 841L595.3 841L0 841z" /></clipPath><clipPath id="16"><path d="M27.5 421.7L567.95 421.7L567.95 421.7L567.95 726.9L567.95 726.9L27.5 726.9z" /></clipPath><clipPath id="17"><path d="M0 -0.9000244L595.3 -0.9000244L595.3 -0.9000244L595.3 841L595.3 841L0 841z" /></clipPath><clipPath id="18"><path d="M27.75 748.95L567 748.95L567 748.95L567 779.85L567 779.85L27.75 779.85z" /></clipPath><clipPath id="19"><path d="M0 -0.9000244L595.3 -0.9000244L595.3 -0.9000244L595.3 841L595.3 841L0 841z" /></clipPath><clipPath id="20"><path d="M0 -0.9000244L595.3 -0.9000244L595.3 -0.9000244L595.3 841L595.3 841L0 841z" /></clipPath><clipPath id="21"><path d="M34.4 111.8L108.75 111.8L108.75 111.8L108.75 128.8L108.75 128.8L34.4 128.8z" /></clipPath><clipPath id="22"><path d="M0 -0.9000244L595.3 -0.9000244L595.3 -0.9000244L595.3 841L595.3 841L0 841z" /></clipPath><clipPath id="23"><path d="M0 -0.9000244L595.3 -0.9000244L595.3 -0.9000244L595.3 841L595.3 841L0 841z" /></clipPath><clipPath id="24"><path d="M34.5 214.5L108.85 214.5L108.85 214.5L108.85 231.5L108.85 231.5L34.5 231.5z" /></clipPath><clipPath id="25"><path d="M0 -0.9000244L595.3 -0.9000244L595.3 -0.9000244L595.3 841L595.3 841L0 841z" /></clipPath><clipPath id="26"><path d="M0 -0.9000244L595.3 -0.9000244L595.3 -0.9000244L595.3 841L595.3 841L0 841z" /></clipPath><clipPath id="27"><path d="M34 258.6L108.35 258.6L108.35 258.6L108.35 275.6L108.35 275.6L34 275.6z" /></clipPath><clipPath id="28"><path d="M0 -0.9000244L595.3 -0.9000244L595.3 -0.9000244L595.3 841L595.3 841L0 841z" /></clipPath><clipPath id="29"><path d="M0 -0.9000244L595.3 -0.9000244L595.3 -0.9000244L595.3 841L595.3 841L0 841z" /></clipPath><clipPath id="30"><path d="M34 403.4L108.35 403.4L108.35 403.4L108.35 420.4L108.35 420.4L34 420.4z" /></clipPath><clipPath id="31"><path d="M0 -0.9000244L595.3 -0.9000244L595.3 -0.9000244L595.3 841L595.3 841L0 841z" /></clipPath><clipPath id="32"><path d="M0 -0.9000244L595.3 -0.9000244L595.3 -0.9000244L595.3 841L595.3 841L0 841z" /></clipPath><clipPath id="33"><path d="M34.4 728.9L108.75 728.9L108.75 728.9L108.75 745.9L108.75 745.9L34.4 745.9z" /></clipPath><clipPath id="34"><path d="M0 -0.9000244L595.3 -0.9000244L595.3 -0.9000244L595.3 841L595.3 841L0 841z" /></clipPath><clipPath id="35"><path d="M0 -0.9000244L595.3 -0.9000244L595.3 -0.9000244L595.3 841L595.3 841L0 841z" /></clipPath><clipPath id="36"><path d="M34.4 782.15L108.75 782.15L108.75 782.15L108.75 799.15L108.75 799.15L34.4 799.15z" /></clipPath><clipPath id="37"><path d="M0 -0.9000244L595.3 -0.9000244L595.3 -0.9000244L595.3 841L595.3 841L0 841z" /></clipPath><clipPath id="38"><path d="M0 -0.9000244L595.3 -0.9000244L595.3 -0.9000244L595.3 841L595.3 841L0 841z" /></clipPath><clipPath id="39"><path d="M28.1 802.6L567.35 802.6L567.35 802.6L567.35 818.05L567.35 818.05L28.1 818.05z" /></clipPath><clipPath id="40"><path d="M0 -0.9000244L595.3 -0.9000244L595.3 -0.9000244L595.3 841L595.3 841L0 841z" /></clipPath></defs><g transform="matrix(1.333333 0 0 1.333333 0 0)"><g><g clip-path="url(#1)"><g clip-path="url(#2)"><g clip-path="url(#3)"></g></g><g clip-path="url(#4)"><g clip-path="url(#5)"></g></g><g clip-path="url(#6)"><g clip-path="url(#7)"></g></g><g clip-path="url(#8)"><path transform="matrix(1 0 0 -1 0 841)" d="M25.2 815.86L32.16 815.86L32.16 815.86L32.16 797.5L32.16 797.5L25.2 797.5z" stroke="none" fill="#0B70BD" fill-rule="evenodd" /><path transform="matrix(1 0 0 -1 0 841)" d="M109.35 815.4L34 815.4L34 815.4L34 797.4L34 797.4L109.35 797.4L109.35 797.4L101.183 806.4L101.183 806.4L109.35 815.4" stroke="none" fill="#0B70BD" fill-rule="evenodd" /></g><g clip-path="url(#9)"><g clip-path="url(#10)"></g></g><g clip-path="url(#11)"><path transform="matrix(1 0 0 -1 0 841)" d="M126.9 806.4L464.2 806.4L464.2 806.4L464.2 805.4L464.2 805.4L126.9 805.4L126.9 805.4L126.9 806.4M464.2 808.9C 465.857 808.9 467.2 807.557 467.2 805.9C 467.2 804.243 465.857 802.9 464.2 802.9C 462.543 802.9 461.2 804.243 461.2 805.9C 461.2 807.557 462.543 808.9 464.2 808.9z" stroke="none" fill="#0B70BD" fill-rule="winding" /></g><g clip-path="url(#12)"><g clip-path="url(#13)"></g></g><g clip-path="url(#14)"><g transform="matrix(0.3708 0 0 0.3708303 502.44 28.5)"><g transform="matrix(1 0 0 1 0 0)"><image x="0" y="0" xlink:href="img_01.png" width="200" height="277" /></g></g></g><g clip-path="url(#15)"><g clip-path="url(#16)"></g></g><g clip-path="url(#17)"><g clip-path="url(#18)"></g></g><g clip-path="url(#19)"><path transform="matrix(1 0 0 -1 0 841)" d="M25.08 729.7L32.16 729.7L32.16 729.7L32.16 711.34L32.16 711.34L25.08 711.34z" stroke="none" fill="#0B70BD" fill-rule="evenodd" /><path transform="matrix(1 0 0 -1 0 841)" d="M109.2 729.7L33.85 729.7L33.85 729.7L33.85 711.7L33.85 711.7L109.2 711.7L109.2 711.7L101.033 720.7L101.033 720.7L109.2 729.7" stroke="none" fill="#0B70BD" fill-rule="evenodd" /></g><g clip-path="url(#20)"><g clip-path="url(#21)"></g></g><g clip-path="url(#22)"><path transform="matrix(1 0 0 -1 0 841)" d="M25.2 626.98L32.16 626.98L32.16 626.98L32.16 608.62L32.16 608.62L25.2 608.62z" stroke="none" fill="#0B70BD" fill-rule="evenodd" /><path transform="matrix(1 0 0 -1 0 841)" d="M24.72 582.9401L31.68 582.9401L31.68 582.9401L31.68 564.46L31.68 564.46L24.72 564.46z" stroke="none" fill="#0B70BD" fill-rule="evenodd" /><path transform="matrix(1 0 0 -1 0 841)" d="M126.75 719.7L464.05 719.7L464.05 719.7L464.05 718.7L464.05 718.7L126.75 718.7L126.75 718.7L126.75 719.7M464.05 722.2C 465.707 722.2 467.05 720.8571 467.05 719.2C 467.05 717.543 465.707 716.2 464.05 716.2C 462.393 716.2 461.05 717.543 461.05 719.2C 461.05 720.8571 462.393 722.2 464.05 722.2z" stroke="none" fill="#0B70BD" fill-rule="winding" /><path transform="matrix(1 0 0 -1 0 841)" d="M109.3 627L33.95 627L33.95 627L33.95 609L33.95 609L109.3 609L109.3 609L101.133 618L101.133 618L109.3 627" stroke="none" fill="#0B70BD" fill-rule="evenodd" /></g><g clip-path="url(#23)"><g clip-path="url(#24)"></g></g><g clip-path="url(#25)"><path transform="matrix(1 0 0 -1 0 841)" d="M108.8 582.9L33.45 582.9L33.45 582.9L33.45 564.9L33.45 564.9L108.8 564.9L108.8 564.9L100.633 573.9L100.633 573.9L108.8 582.9" stroke="none" fill="#0B70BD" fill-rule="evenodd" /></g><g clip-path="url(#26)"><g clip-path="url(#27)"></g></g><g clip-path="url(#28)"><path transform="matrix(1 0 0 -1 0 841)" d="M126.85 618L563.4 618L563.4 618L563.4 617L563.4 617L126.85 617L126.85 617L126.85 618M563.4 620.5C 565.057 620.5 566.4 619.157 566.4 617.5C 566.4 615.843 565.057 614.5 563.4 614.5C 561.743 614.5 560.4 615.843 560.4 617.5C 560.4 619.157 561.743 620.5 563.4 620.5z" stroke="none" fill="#0B70BD" fill-rule="winding" /><path transform="matrix(1 0 0 -1 0 841)" d="M126.35 573.4L562.9 573.4L562.9 573.4L562.9 572.4L562.9 572.4L126.35 572.4L126.35 572.4L126.35 573.4M562.9 575.9C 564.557 575.9 565.9 574.557 565.9 572.9C 565.9 571.243 564.557 569.9 562.9 569.9C 561.243 569.9 559.9 571.243 559.9 572.9C 559.9 574.557 561.243 575.9 562.9 575.9z" stroke="none" fill="#0B70BD" fill-rule="winding" /><path transform="matrix(1 0 0 -1 0 841)" d="M24.72 438.1L31.68 438.1L31.68 438.1L31.68 419.7401L31.68 419.7401L24.72 419.7401z" stroke="none" fill="#0B70BD" fill-rule="evenodd" /><path transform="matrix(1 0 0 -1 0 841)" d="M25.08 113.14L32.16 113.14L32.16 113.14L32.16 94.66003L32.16 94.66003L25.08 94.66003z" stroke="none" fill="#0B70BD" fill-rule="evenodd" /><path transform="matrix(1 0 0 -1 0 841)" d="M126.35 428.5L562.9 428.5L562.9 428.5L562.9 427.5L562.9 427.5L126.35 427.5L126.35 427.5L126.35 428.5M562.9 431C 564.557 431 565.9 429.657 565.9 428C 565.9 426.343 564.557 425 562.9 425C 561.243 425 559.9 426.343 559.9 428C 559.9 429.657 561.243 431 562.9 431z" stroke="none" fill="#0B70BD" fill-rule="winding" /><path transform="matrix(1 0 0 -1 0 841)" d="M108.8 438.1L33.45 438.1L33.45 438.1L33.45 420.1L33.45 420.1L108.8 420.1L108.8 420.1L100.633 429.1L100.633 429.1L108.8 438.1" stroke="none" fill="#0B70BD" fill-rule="evenodd" /></g><g clip-path="url(#29)"><g clip-path="url(#30)"></g></g><g clip-path="url(#31)"><path transform="matrix(1 0 0 -1 0 841)" d="M109.2 112.6L33.85 112.6L33.85 112.6L33.85 94.60004L33.85 94.60004L109.2 94.60004L109.2 94.60004L101.033 103.6L101.033 103.6L109.2 112.6" stroke="none" fill="#0B70BD" fill-rule="evenodd" /></g><g clip-path="url(#32)"><g clip-path="url(#33)"></g></g><g clip-path="url(#34)"><path transform="matrix(1 0 0 -1 0 841)" d="M126.75 103.6L563.3 103.6L563.3 103.6L563.3 102.6L563.3 102.6L126.75 102.6L126.75 102.6L126.75 103.6M563.3 106.1C 564.957 106.1 566.3 104.757 566.3 103.1C 566.3 101.4431 564.957 100.1 563.3 100.1C 561.643 100.1 560.3 101.4431 560.3 103.1C 560.3 104.757 561.643 106.1 563.3 106.1z" stroke="none" fill="#0B70BD" fill-rule="winding" /><path transform="matrix(1 0 0 -1 0 841)" d="M25.08 59.86005L32.16 59.86005L32.16 59.86005L32.16 41.50006L32.16 41.50006L25.08 41.50006z" stroke="none" fill="#0B70BD" fill-rule="evenodd" /><path transform="matrix(1 0 0 -1 0 841)" d="M109.2 59.35004L33.85 59.35004L33.85 59.35004L33.85 41.35004L33.85 41.35004L109.2 41.35004L109.2 41.35004L101.033 50.35004L101.033 50.35004L109.2 59.35004" stroke="none" fill="#0B70BD" fill-rule="evenodd" /></g><g clip-path="url(#35)"><g clip-path="url(#36)"></g></g><g clip-path="url(#37)"><path transform="matrix(1 0 0 -1 0 841)" d="M126.75 50.35004L563.3 50.35004L563.3 50.35004L563.3 49.35004L563.3 49.35004L126.75 49.35004L126.75 49.35004L126.75 50.35004M563.3 52.85004C 564.957 52.85004 566.3 51.50702 566.3 49.85004C 566.3 48.19305 564.957 46.85004 563.3 46.85004C 561.643 46.85004 560.3 48.19305 560.3 49.85004C 560.3 51.50702 561.643 52.85004 563.3 52.85004z" stroke="none" fill="#0B70BD" fill-rule="winding" /></g><g clip-path="url(#38)"><g clip-path="url(#39)"></g></g><g clip-path="url(#40)"><path transform="matrix(1 0 0 -1 0 841)" d="M-13.44 11.86005L607.32 11.86005L607.32 11.86005L607.32 -4.579956L607.32 -4.579956L-13.44 -4.579956z" stroke="none" fill="#0B70BD" fill-rule="evenodd" /><path transform="matrix(1 0 0 -1 0 841)" d="M-1.44 844.3L619.32 844.3L619.32 844.3L619.32 834.7L619.32 834.7L-1.44 834.7z" stroke="none" fill="#0B70BD" fill-rule="evenodd" /></g></g></g></g></svg>